<svg width="85" height="33" viewBox="0 0 85 33" fill="none" xmlns="http://www.w3.org/2000/svg">
<rect x="1.5" y="1.5" width="81.7018" height="29.8" stroke="#111111" stroke-width="3"/>
<path d="M11 19.9V18.9H15.44C15.46 20.44 16.08 20.56 17.36 20.56H22.8C23.74 20.56 24.7 20.46 24.7 19.34C24.7 18.08 24.18 18 18.46 18C11.78 18 11.02 17.2 11.02 13.64C11.02 11.02 11.26 9 16.86 9H23.06C28.18 9 28.66 10.74 28.66 13.28V13.74H24.22C24.22 12.68 24.1 12.24 22.06 12.24H17.14C16.14 12.24 15.46 12.58 15.46 13.36C15.46 14.62 16 14.66 20.76 14.64C27.66 14.62 29.26 15.04 29.26 19.26C29.26 23.16 27.94 23.8 22.04 23.8H16.66C12.62 23.8 11 23.04 11 19.9Z" fill="#111111"/>
<path d="M32.26 14.7565V18.0436H49.1218V14.7565H32.26Z" fill="#111111"/>
<path d="M52.1218 23.64L59.9618 9.15997H65.7418L73.7018 23.64H68.7618L67.3818 21.08H58.3818L57.0818 23.64H52.1218ZM62.8418 12.52L60.0418 17.96H65.7218L62.8418 12.52Z" fill="#111111"/>
</svg>
